<svg width="105" height="106" viewBox="0 0 105 106" fill="none" xmlns="http://www.w3.org/2000/svg">
<path d="M72.7697 3.62061L66.2339 18.3097C67.0783 18.6282 67.9228 18.9953 68.726 19.4108L75.2618 4.73562C74.4379 4.33394 73.6072 3.96688 72.7697 3.62061Z" fill="#004BFF"/>
<path d="M80.0326 28.0343L86.2251 23.2834L84.1998 33.7548C84.9893 35.0706 85.6827 36.435 86.28 37.8616L88.3602 24.6685L99.7772 29.0177C99.2211 27.8958 98.6376 26.7808 97.9922 25.6935L87.9757 21.919L92.754 18.2554C92.1567 17.556 91.5457 16.8703 90.9141 16.2124L78.124 26.0259C78.7968 26.663 79.4353 27.3348 80.0326 28.0343Z" fill="#004BFF"/>
<path d="M21.7329 33.775L16.8104 29.869C18.4856 27.1335 20.4559 24.5987 22.694 22.3064L27.5272 26.3093C28.1794 25.6514 28.8453 25.035 29.5525 24.4394L17.1194 14.0996C16.4397 14.716 15.7875 15.3739 15.1628 16.0595L21.6436 21.4268C19.4055 23.733 17.4215 26.2747 15.7395 29.0034L9.13502 23.7607C8.63385 24.5295 8.15328 25.3259 7.70703 26.1223L20.4216 36.2267C20.8198 35.3956 21.2523 34.5715 21.7329 33.775Z" fill="#004BFF"/>
<path d="M83.7041 71.7891L86.5876 78.5692C85.1733 80.4183 83.6012 82.1497 81.9123 83.7356L75.1156 81.3117C74.2437 82.0111 73.3307 82.6552 72.397 83.2439L89.9516 89.5184C90.9608 88.4865 91.9357 87.4338 92.8625 86.3188L85.393 68.7695C84.8918 69.7945 84.3152 70.8126 83.7041 71.7891ZM83.354 84.2481C84.7271 82.9184 86.0109 81.4987 87.1986 80.0027L90.0202 86.6236L83.354 84.2481Z" fill="#004BFF"/>
<path d="M29.8781 88.3355C27.9215 87.0542 26.0679 85.6137 24.3447 84.0278L26.0679 76.8945C25.3058 76.0565 24.585 75.177 23.9191 74.2559L19.4429 92.7193C20.5619 93.6681 21.7153 94.5615 22.903 95.4134L39.2356 86.2301C38.1852 85.8077 37.1828 85.3229 36.1874 84.7896L29.8781 88.3355ZM22.2714 92.6154L23.9808 85.5445C25.4157 86.8257 26.9398 88.01 28.5325 89.0904L22.2714 92.6154Z" fill="#004BFF"/>
<path d="M61.0629 88.0158L62.6282 101.922L52.3097 88.9368C51.3828 88.923 50.456 88.8814 49.5498 88.7845L49.9961 104.928C50.9778 104.983 51.9527 105.011 52.9344 105.011L52.4058 91.9148L62.2987 104.173C63.404 103.965 64.4887 103.737 65.5666 103.46L63.7953 87.2886C62.896 87.5725 61.9829 87.8218 61.0629 88.0158Z" fill="#004BFF"/>
<path d="M13.2799 70.9658C12.003 70.9658 10.9663 72.0116 10.9663 73.3136C10.9663 74.6017 12.003 75.6475 13.2799 75.6475C14.5706 75.6475 15.6073 74.6017 15.6073 73.3136C15.6073 72.0046 14.5706 70.9658 13.2799 70.9658Z" fill="#004BFF"/>
<path d="M13.0531 48.2145C15.2225 50.6731 15.0028 54.4544 12.5656 56.6429C10.1284 58.8314 6.37998 58.6097 4.21054 56.1512C2.0411 53.6926 2.26079 49.9113 4.69798 47.7228L2.8924 45.6729C-0.663832 48.8655 -0.986502 54.3852 2.17841 57.9795C5.34332 61.5739 10.815 61.8925 14.3781 58.6998C16.1562 57.1 17.1242 54.9254 17.2546 52.6953C17.3851 50.4653 16.6711 48.1868 15.0852 46.3931L13.0531 48.2145Z" fill="#004BFF"/>
<path d="M96.81 52.364C96.81 50.9373 96.7413 49.5037 96.604 48.0909L105 48.1602C104.932 47.2391 104.836 46.3318 104.712 45.4315L88.5716 45.4038C88.7501 46.2695 88.8874 47.149 88.9698 48.0286L95.2378 48.084C95.3751 49.5037 95.4506 50.9373 95.4506 52.3709C95.4506 54.1508 95.3339 55.9375 95.1211 57.7036L88.8668 57.6481C88.7432 58.5415 88.5922 59.4072 88.3931 60.2729L104.547 60.5361C104.698 59.6289 104.808 58.7216 104.904 57.8074L96.501 57.7313C96.7001 55.9375 96.81 54.1438 96.81 52.364Z" fill="#004BFF"/>
<path d="M50.2016 9.60571L54.0394 15.8041C55.179 15.8318 56.298 15.9149 57.4034 16.0672L47.4761 0C46.0207 0.152362 44.5927 0.360128 43.1922 0.630224L38.2217 18.9275C39.2583 18.4635 40.3019 18.0341 41.3797 17.6947L43.302 10.6238C45.5607 10.0974 47.8743 9.75115 50.2016 9.60571ZM49.3847 8.28986C47.4761 8.44915 45.5744 8.72617 43.7071 9.13478L45.6019 2.17462L49.3847 8.28986Z" fill="#004BFF"/>
</svg>
