<svg width="80" height="80" viewBox="0 0 80 80" fill="none" xmlns="http://www.w3.org/2000/svg">
<path d="M55.4381 2.75928L50.459 13.9498C51.1023 14.1925 51.7456 14.4721 52.3575 14.7887L57.3367 3.60872C56.709 3.30271 56.0762 3.02308 55.4381 2.75928Z" fill="white"/>
<path d="M60.9706 21.357L65.6882 17.7377L64.1453 25.7151C64.7468 26.7175 65.275 27.7569 65.73 28.8438L67.3148 18.7929L76.0126 22.1062C75.5889 21.2515 75.1444 20.4021 74.6527 19.5737L67.0219 16.6983L70.6621 13.9073C70.2071 13.3744 69.7416 12.8521 69.2604 12.3508L59.5166 19.827C60.0292 20.3124 60.5156 20.8242 60.9706 21.357Z" fill="white"/>
<path d="M16.5563 25.7307L12.8063 22.755C14.0825 20.671 15.5835 18.7399 17.2886 16.9936L20.9706 20.0431C21.4675 19.5419 21.9748 19.0723 22.5135 18.6186L13.0417 10.7415C12.5239 11.211 12.027 11.7122 11.5511 12.2346L16.4883 16.3235C14.7833 18.0804 13.2718 20.0167 11.9904 22.0955L6.95897 18.1015C6.57717 18.6872 6.21106 19.2939 5.87109 19.9007L15.5574 27.5984C15.8607 26.9653 16.1902 26.3375 16.5563 25.7307Z" fill="white"/>
<path d="M63.7684 54.6917L65.9651 59.857C64.8876 61.2657 63.6899 62.5847 62.4033 63.7929L57.2254 61.9463C56.5612 62.4792 55.8656 62.9698 55.1543 63.4183L68.5278 68.1984C69.2967 67.4123 70.0394 66.6103 70.7454 65.7609L65.055 52.3914C64.6732 53.1722 64.2339 53.9478 63.7684 54.6917ZM63.5017 64.1833C64.5477 63.1703 65.5257 62.0887 66.4305 60.9491L68.5802 65.993L63.5017 64.1833Z" fill="white"/>
<path d="M22.7614 67.2955C21.2708 66.3195 19.8586 65.2221 18.5459 64.0138L19.8586 58.5795C19.2781 57.9411 18.7289 57.2711 18.2216 56.5693L14.8115 70.6353C15.664 71.3581 16.5427 72.0387 17.4475 72.6877L29.8901 65.6916C29.0899 65.3698 28.3263 65.0005 27.5679 64.5942L22.7614 67.2955ZM16.9664 70.5561L18.2687 65.1693C19.3618 66.1454 20.5229 67.0476 21.7363 67.8706L16.9664 70.5561Z" fill="white"/>
<path d="M46.519 67.0525L47.7115 77.6468L39.8506 67.7542C39.1445 67.7437 38.4384 67.712 37.748 67.6382L38.088 79.9366C38.8359 79.9788 39.5786 79.9999 40.3265 79.9999L39.9238 70.0229L47.4605 79.3615C48.3025 79.2033 49.1289 79.0291 49.95 78.8181L48.6006 66.4985C47.9155 66.7149 47.2199 66.9048 46.519 67.0525Z" fill="white"/>
<path d="M10.1171 54.0629C9.14425 54.0629 8.35449 54.8595 8.35449 55.8514C8.35449 56.8328 9.14425 57.6295 10.1171 57.6295C11.1003 57.6295 11.8901 56.8328 11.8901 55.8514C11.8901 54.8543 11.1003 54.0629 10.1171 54.0629Z" fill="white"/>
<path d="M9.94416 36.7311C11.5969 38.6041 11.4295 41.4848 9.57282 43.1521C7.71611 44.8193 4.86043 44.6505 3.2077 42.7775C1.55496 40.9045 1.72233 38.0237 3.57904 36.3565L2.2035 34.7948C-0.505725 37.2271 -0.751543 41.4321 1.65957 44.1703C4.07068 46.9086 8.23912 47.1513 10.9536 44.719C12.3082 43.5003 13.0457 41.8436 13.145 40.1447C13.2444 38.4458 12.7005 36.71 11.4923 35.3435L9.94416 36.7311Z" fill="white"/>
<path d="M73.752 39.8923C73.752 38.8054 73.6997 37.7133 73.5951 36.637L79.9916 36.6897C79.9393 35.988 79.8661 35.2968 79.772 34.6109L67.4758 34.5898C67.6118 35.2493 67.7164 35.9194 67.7792 36.5895L72.5543 36.6317C72.6589 37.7133 72.7165 38.8054 72.7165 39.8975C72.7165 41.2535 72.6276 42.6147 72.4654 43.9601L67.7007 43.9179C67.6066 44.5985 67.4915 45.258 67.3398 45.9175L79.6465 46.118C79.7615 45.4268 79.8452 44.7357 79.9184 44.0392L73.5167 43.9812C73.6684 42.6147 73.752 41.2482 73.752 39.8923Z" fill="white"/>
<path d="M38.2448 7.31788L41.1685 12.0399C42.0367 12.061 42.8892 12.1244 43.7313 12.2404L36.1684 0C35.0596 0.116073 33.9718 0.274355 32.9048 0.48012L29.1182 14.4194C29.9079 14.0659 30.7029 13.7388 31.524 13.4803L32.9885 8.09346C34.7092 7.69248 36.4718 7.42868 38.2448 7.31788ZM37.6224 6.31543C36.1684 6.43678 34.7197 6.64782 33.2971 6.95911L34.7406 1.65668L37.6224 6.31543Z" fill="white"/>
</svg>
