<svg width="116" height="116" viewBox="0 0 116 116" fill="none" xmlns="http://www.w3.org/2000/svg">
<path d="M80.292 3.96582L73.1113 20.0539C74.0391 20.4028 74.9668 20.8048 75.8493 21.2599L83.03 5.18702C82.1249 4.74709 81.2122 4.34508 80.292 3.96582Z" fill="black"/>
<path d="M88.2707 30.7027L95.0743 25.4993L92.8492 36.968C93.7166 38.4092 94.4784 39.9034 95.1346 41.466L97.4201 27.0163L109.964 31.7798C109.353 30.551 108.712 29.3298 108.003 28.1389L96.9977 24.005L102.247 19.9925C101.591 19.2264 100.92 18.4755 100.226 17.7549L86.1738 28.503C86.913 29.2008 87.6145 29.9366 88.2707 30.7027Z" fill="black"/>
<path d="M24.2184 36.9907L18.8103 32.7127C20.6507 29.7166 22.8155 26.9404 25.2744 24.4298L30.5845 28.814C31.301 28.0934 32.0327 27.4183 32.8096 26.766L19.1497 15.4414C18.403 16.1165 17.6864 16.8371 17 17.588L24.1204 23.4665C21.6614 25.9923 19.4816 28.776 17.6336 31.7646L10.3775 26.0226C9.82686 26.8646 9.29887 27.7369 8.80859 28.6092L22.7777 39.6759C23.2152 38.7656 23.6904 37.863 24.2184 36.9907Z" fill="black"/>
<path d="M92.3057 78.6264L95.4736 86.0523C93.9198 88.0775 92.1926 89.9738 90.337 91.7108L82.8697 89.056C81.9118 89.8221 80.9086 90.5275 79.8828 91.1722L99.1696 98.0443C100.278 96.9142 101.349 95.7612 102.368 94.54L94.1612 75.3193C93.6106 76.4419 92.977 77.5569 92.3057 78.6264ZM91.921 92.2721C93.4296 90.8157 94.8401 89.2608 96.1449 87.6224L99.245 94.8738L91.921 92.2721Z" fill="black"/>
<path d="M33.1681 96.7467C31.0184 95.3435 28.9819 93.7658 27.0886 92.0288L28.9819 84.2161C28.1446 83.2983 27.3526 82.335 26.621 81.3262L21.7031 101.548C22.9326 102.587 24.1998 103.566 25.5047 104.499L43.4488 94.4408C42.2948 93.9782 41.1936 93.4472 40.0999 92.8631L33.1681 96.7467ZM24.8107 101.434L26.6889 93.6899C28.2653 95.0932 29.9398 96.3902 31.6897 97.5735L24.8107 101.434Z" fill="black"/>
<path d="M67.4304 96.397L69.1501 111.628L57.8134 97.4058C56.7952 97.3907 55.7769 97.3452 54.7812 97.239L55.2715 114.92C56.3501 114.981 57.4212 115.011 58.4998 115.011L57.919 100.667L68.7881 114.093C70.0025 113.866 71.1942 113.615 72.3784 113.312L70.4324 95.6006C69.4443 95.9116 68.4411 96.1846 67.4304 96.397Z" fill="black"/>
<path d="M14.9325 77.7227C13.5296 77.7227 12.3906 78.868 12.3906 80.294C12.3906 81.7048 13.5296 82.8502 14.9325 82.8502C16.3506 82.8502 17.4895 81.7048 17.4895 80.294C17.4895 78.8604 16.3506 77.7227 14.9325 77.7227Z" fill="black"/>
<path d="M14.6828 52.8052C17.0664 55.4979 16.825 59.6394 14.1473 62.0363C11.4696 64.4332 7.35131 64.1905 4.9678 61.4978C2.5843 58.805 2.82567 54.6636 5.50334 52.2667L3.5196 50.0215C-0.387538 53.5182 -0.742046 59.5636 2.73515 63.5002C6.21236 67.4369 12.2239 67.7858 16.1386 64.2891C18.0922 62.5369 19.1557 60.1552 19.299 57.7128C19.4423 55.2704 18.6579 52.7749 16.9155 50.8103L14.6828 52.8052Z" fill="black"/>
<path d="M106.704 57.3506C106.704 55.7881 106.629 54.2179 106.478 52.6706L115.703 52.7464C115.628 51.7376 115.522 50.7439 115.386 49.7579L97.6531 49.7275C97.8493 50.6757 98.0001 51.639 98.0906 52.6023L104.977 52.663C105.128 54.2179 105.211 55.7881 105.211 57.3582C105.211 59.3075 105.083 61.2645 104.849 63.1987L97.9775 63.138C97.8417 64.1165 97.6758 65.0646 97.457 66.0128L115.205 66.301C115.371 65.3074 115.492 64.3137 115.597 63.3125L106.365 63.229C106.584 61.2645 106.704 59.3 106.704 57.3506Z" fill="black"/>
<path d="M55.498 10.5196L59.7144 17.3083C60.9665 17.3386 62.1959 17.4296 63.4103 17.5965L52.5035 -0.000976562C50.9045 0.165896 49.3356 0.39345 47.7969 0.689269L42.3359 20.7292C43.4749 20.221 44.6214 19.7507 45.8056 19.379L47.9176 11.6346C50.3991 11.0581 52.941 10.6789 55.498 10.5196ZM54.6004 9.07841C52.5035 9.25287 50.4142 9.55627 48.3626 10.0038L50.4444 2.38075L54.6004 9.07841Z" fill="black"/>
</svg>
